<?xml version="1.0" encoding="utf-8"?>
<!-- Generator: Adobe Illustrator 17.0.0, SVG Export Plug-In . SVG Version: 6.00 Build 0)  -->
<!DOCTYPE svg PUBLIC "-//W3C//DTD SVG 1.1//EN" "http://www.w3.org/Graphics/SVG/1.1/DTD/svg11.dtd">
<svg version="1.1" xmlns="http://www.w3.org/2000/svg" xmlns:xlink="http://www.w3.org/1999/xlink" x="0px"
	 y="0px" width="95px" height="39px" viewBox="0 0 100 39" enable-background="new 0 0 100 39" xml:space="preserve">
<g>
	<path d="M9.406,12.489c-0.072,1.488-0.144,2.928-0.216,4.32c1.2,0.096,2.424,0.264,3.672,0.456c0,0.48-0.072,0.984-0.168,1.56
		c-1.296,0-2.496-0.096-3.6-0.336c-0.048,0.672-0.096,1.344-0.144,1.969c1.176,0.096,2.376,0.264,3.624,0.456
		c0,0.479-0.048,1.008-0.144,1.56c-1.296,0-2.496-0.096-3.6-0.336c-0.096,1.248-0.216,2.473-0.312,3.673
		c-0.576-0.072-1.104-0.145-1.632-0.24c0.24-4.561,0.528-8.977,0.864-13.25C8.326,12.369,8.877,12.417,9.406,12.489z M20.71,11.841
		c0.72,4.656,1.08,9.385,1.08,14.186c-0.984,0.216-1.992,0.336-3.048,0.336c-0.144-0.288-0.24-0.696-0.264-1.272
		c0.504-0.071,1.032-0.144,1.584-0.191c-0.168-3.841-0.48-7.657-0.936-11.474c-0.888,0.024-2.16,0.024-3.792,0.024
		c-1.032,0.048-2.208,0.096-3.528,0.12c-0.12-0.48-0.168-1.032-0.168-1.656c1.008-0.096,2.28-0.168,3.769-0.24
		C17.446,11.673,19.223,11.745,20.71,11.841z"/>
	<path d="M34.294,15.009c0.024,1.488,0.048,2.928,0.072,4.344c1.848,0.024,3.192,0.072,4.056,0.12c0,0.192,0.024,0.408,0.024,0.648
		v0.72c-0.36,0.12-1.705,0.192-4.057,0.192c0,0.359,0,0.695,0,1.008c0,1.729-0.048,3.384-0.144,4.969
		c-0.192,0.023-0.48,0.048-0.84,0.048c-0.336,0-0.576-0.024-0.768-0.048c-0.144-1.561-0.216-3.169-0.216-4.825
		c0-0.384,0-0.768,0-1.151c-1.896,0-3.264-0.049-4.08-0.168c-0.072-0.217-0.096-0.48-0.096-0.769c0-0.264,0-0.504,0.048-0.696
		c1.128-0.024,2.521-0.048,4.177-0.048c0.024-1.44,0.072-2.904,0.168-4.344c0.288-0.096,0.552-0.168,0.792-0.168
		C33.742,14.841,34.03,14.913,34.294,15.009z M37.654,13.665c-3.048,0.192-5.952,0.288-8.736,0.288
		c-0.12-0.48-0.168-1.008-0.168-1.536c2.76-0.168,5.688-0.288,8.785-0.384C37.606,12.561,37.654,13.089,37.654,13.665z
		 M42.287,21.897c-0.528,0.097-1.057,0.12-1.561,0.12c-0.336-1.968-0.528-3.984-0.624-6.024c0.504-0.072,1.057-0.12,1.632-0.12
		C41.974,17.938,42.142,19.93,42.287,21.897z M47.254,24.706c-0.863,0.312-1.775,0.456-2.688,0.456
		c-0.12-0.288-0.192-0.648-0.24-1.08c0.384-0.12,0.816-0.216,1.272-0.288c-0.337-3.192-0.696-6.48-1.032-9.865
		c0.479-0.096,1.008-0.192,1.607-0.264C46.703,17.193,47.063,20.866,47.254,24.706z"/>
	<path d="M63.262,11.649c2.257,0.096,4.513,0.168,6.769,0.264v0.672c0,0.336-0.048,0.624-0.096,0.84
		c-4.08-0.048-8.16-0.168-12.289-0.36c-0.432,1.488-0.912,2.952-1.392,4.392c-0.336,0.864-0.648,1.729-0.912,2.616
		c-0.265,0.889-0.624,1.729-1.057,2.545c-0.264,0-0.552-0.024-0.864-0.12c-0.264-0.096-0.504-0.216-0.695-0.36
		c0.888-2.928,1.943-6,3.192-9.169c-0.601-0.024-1.177-0.048-1.729-0.096c-0.072-0.192-0.096-0.456-0.096-0.816
		c0-0.24,0.048-0.48,0.191-0.744c2.425,0.096,4.873,0.168,7.321,0.264c-0.097-0.648-0.168-1.296-0.192-1.944
		c0.576-0.048,1.08-0.096,1.56-0.144C63.094,10.232,63.19,10.953,63.262,11.649z M59.638,18.273v-3.648
		c0.24-0.024,0.528-0.048,0.84-0.048c0.288,0,0.553,0.048,0.816,0.144v3.552c0.72,0,1.344,0.024,1.872,0.024
		c0.048,0.24,0.096,0.48,0.096,0.72c0,0.24-0.023,0.48-0.048,0.696c-0.504,0.072-1.151,0.12-1.92,0.12v2.76
		c0.672,0.24,1.344,0.456,2.04,0.624c0,0.408-0.072,0.864-0.216,1.393c-0.672-0.097-1.272-0.24-1.824-0.433v3.673
		c-0.192,0.048-0.48,0.072-0.864,0.072s-0.647-0.072-0.792-0.169v-4.08c-1.008,0.721-1.992,1.345-2.904,1.896
		c-0.336-0.336-0.576-0.72-0.72-1.152c1.104-0.912,2.328-1.776,3.624-2.64v-1.897h-0.96c-0.768,0-1.344-0.024-1.68-0.096
		c-0.097-0.192-0.145-0.408-0.145-0.696c0-0.24,0.024-0.48,0.096-0.72c0.288-0.048,0.889-0.096,1.824-0.096H59.638z M70.655,18.585
		v0.696c-0.793,0.144-1.561,0.24-2.28,0.312c0.119,2.592,0.191,4.969,0.239,7.153c-0.264,0.145-0.72,0.216-1.392,0.216
		c-0.145-1.008-0.24-2.04-0.312-3.12c-0.672,0.336-1.56,0.672-2.664,1.009c-0.24-0.337-0.408-0.696-0.504-1.104
		c0.96-0.672,1.968-1.2,3.048-1.584c-0.048-0.792-0.096-1.608-0.119-2.425c-0.793,0.048-1.561,0.072-2.305,0.072
		c-0.096-0.48-0.144-0.96-0.144-1.464c0.792-0.096,1.584-0.192,2.399-0.264c-0.023-0.912-0.023-1.848-0.023-2.809
		c0.528-0.096,1.032-0.144,1.512-0.144c0.048,0.984,0.12,1.944,0.192,2.856c0.768-0.048,1.536-0.072,2.304-0.072
		C70.631,18.105,70.655,18.345,70.655,18.585z M72.022,23.771c-0.071,0.407-0.216,0.84-0.407,1.296
		c-0.96-0.145-1.729-0.36-2.305-0.696c0.145-0.528,0.312-0.96,0.456-1.272C70.511,23.242,71.255,23.458,72.022,23.771z"/>
	<path d="M90.238,15.537c-2.832,1.392-5.641,2.688-8.448,3.912c0.216,2.641,0.384,5.209,0.504,7.705
		c-0.553,0.096-1.08,0.145-1.608,0.145c-0.288-2.377-0.48-4.753-0.576-7.129c-0.864,0.384-1.728,0.768-2.592,1.104
		c-0.288-0.359-0.528-0.815-0.744-1.368c4.248-2.112,8.496-3.984,12.745-5.64C89.83,14.625,90.07,15.057,90.238,15.537z
		 M80.854,11.385c-0.6,1.248-1.44,2.544-2.544,3.84c-0.576-0.12-0.984-0.36-1.272-0.744c0.528-1.248,1.32-2.568,2.376-3.912
		C80.037,10.713,80.518,11,80.854,11.385z M86.687,14.721c-0.456,0.144-0.961,0.216-1.536,0.216c-0.576,0-1.08-0.024-1.513-0.072
		c-0.144-0.336-0.191-0.696-0.191-1.032c0.407-0.12,0.911-0.192,1.512-0.192c-0.192-1.561-0.312-3.097-0.408-4.608
		c0.48-0.096,0.984-0.144,1.464-0.144C86.446,11.625,86.687,13.569,86.687,14.721z M90.022,16.929c0.144,0.6,0.216,1.2,0.264,1.8
		c1.009,0.096,2.017,0.168,3.001,0.264c0,0.384-0.072,0.84-0.192,1.32c-2.688,0-5.448-0.191-8.305-0.6
		c0-0.504,0.048-0.96,0.144-1.368c1.272,0.072,2.521,0.144,3.721,0.24c-0.096-0.504-0.144-1.008-0.144-1.536
		c0.168-0.096,0.432-0.144,0.768-0.192C89.614,16.857,89.878,16.881,90.022,16.929z M88.078,23.986
		c-0.048-0.336-0.072-0.648-0.096-0.937c-1.2-0.023-2.089-0.072-2.664-0.144c-0.072-0.192-0.097-0.433-0.097-0.721
		c0-0.239,0-0.456,0.048-0.647c0.744,0,1.608-0.024,2.616-0.024c-0.023-0.24-0.048-0.479-0.048-0.72
		c0.528-0.096,1.08-0.145,1.681-0.145c0.023,0.288,0.048,0.576,0.096,0.864c1.44,0,2.448,0.048,3.049,0.12
		c0.023,0.192,0.048,0.384,0.048,0.601v0.672c-0.24,0.096-1.225,0.144-2.952,0.144c0.023,0.336,0.048,0.648,0.071,0.937
		c1.177,0,2.017,0.048,2.496,0.096c0.024,0.192,0.049,0.384,0.049,0.6v0.625c-0.192,0.144-1.009,0.216-2.4,0.216
		c0.023,0.288,0.048,0.552,0.071,0.815c0.912-0.048,1.873-0.096,2.833-0.144c0.048,0.432,0.096,0.864,0.096,1.344
		c-2.544,0.288-4.992,0.456-7.32,0.456c-0.097-0.432-0.12-0.84-0.12-1.271c0.936-0.097,1.896-0.192,2.856-0.265
		c-0.072-0.336-0.12-0.647-0.145-0.96c-1.08,0-1.896-0.048-2.424-0.144c-0.072-0.192-0.097-0.433-0.097-0.673
		c0-0.239,0-0.455,0.049-0.647C86.446,24.034,87.214,24.01,88.078,23.986z M94.415,12.609c-0.097,0.24-0.216,0.456-0.36,0.648
		c-0.12,0.24-0.264,0.456-0.432,0.648c-1.2-0.432-2.328-1.152-3.385-2.136c0.192-0.528,0.456-0.984,0.816-1.368
		C92.158,11.049,93.263,11.793,94.415,12.609z"/>
</g>
<g>
</g>
<g>
</g>
<g>
</g>
<g>
</g>
<g>
</g>
<g>
</g>
</svg>
