<?xml version="1.0" encoding="utf-8"?>
<!-- Generator: Adobe Illustrator 17.0.0, SVG Export Plug-In . SVG Version: 6.00 Build 0)  -->
<!DOCTYPE svg PUBLIC "-//W3C//DTD SVG 1.1//EN" "http://www.w3.org/Graphics/SVG/1.1/DTD/svg11.dtd">
<svg version="1.1" xmlns="http://www.w3.org/2000/svg" xmlns:xlink="http://www.w3.org/1999/xlink" x="0px"
	 y="0px" width="100px" height="30px" viewBox="0 0 100 30" enable-background="new 0 0 100 30" xml:space="preserve">
<g>
	<path d="M8.073,6.858c-0.048,0.768-0.12,1.536-0.264,2.304c1.632,0.072,3.24,0.144,4.848,0.192c0-1.656,0.072-2.928,0.216-3.84
		c0.24-0.024,0.528-0.048,0.864-0.048c0.264,0,0.528,0.048,0.792,0.144c0,1.152-0.072,2.424-0.168,3.816
		c1.512,0.072,3.024,0.144,4.512,0.216v0.768c-0.024,0.24-0.024,0.504-0.024,0.744c-5.281,0-9.553-0.216-12.793-0.648
		c0-0.432,0.144-1.656,0.48-3.696c0.36-0.024,0.648-0.048,0.84-0.048C7.617,6.762,7.857,6.811,8.073,6.858z M14.578,13.027
		c1.992-0.096,3.984-0.144,6-0.144c0.024,0.576,0.048,1.032,0.048,1.392c0,0.792-0.048,1.488-0.096,2.112
		c-0.168,0.048-0.432,0.072-0.816,0.072c-0.384,0-0.648-0.024-0.792-0.12c0.024-0.624,0.048-1.248,0.048-1.92
		c-3.625,0.144-7.225,0.312-10.777,0.48c-0.024,0.552-0.048,1.104-0.072,1.632c-0.192,0.071-0.456,0.096-0.816,0.096
		c-0.36,0-0.624-0.048-0.768-0.168c0-1.536,0.024-2.736,0.096-3.552c0.24-0.024,0.504-0.048,0.816-0.048
		c0.264,0,0.528,0.048,0.768,0.144v0.456c1.56-0.144,3.12-0.24,4.656-0.336c-0.144-0.48-0.192-0.96-0.192-1.488
		c0.528-0.096,1.056-0.144,1.584-0.144C14.434,12.067,14.53,12.595,14.578,13.027z M10.929,21.907
		c-0.432,0.864-1.008,1.752-1.776,2.664c-0.528-0.096-0.912-0.336-1.176-0.695c0.36-0.912,0.888-1.801,1.608-2.736
		C10.161,21.283,10.593,21.548,10.929,21.907z M8.865,20.491c-0.096-0.456-0.144-0.936-0.144-1.44
		c3.12-0.312,6.48-0.479,10.033-0.479c0.024,0.192,0.048,0.432,0.048,0.672v0.696c-1.392,0.144-2.784,0.264-4.128,0.336
		c0.192,1.104,0.36,2.568,0.552,4.44c-0.288,0.12-0.72,0.192-1.272,0.192c-0.672,0-1.224-0.049-1.632-0.097
		c-0.096-0.312-0.144-0.672-0.144-1.056c0.432,0,0.888-0.024,1.32-0.048c-0.192-1.225-0.312-2.328-0.384-3.337
		C11.673,20.468,10.257,20.491,8.865,20.491z M17.434,16.603v0.696c-2.4,0.385-4.777,0.553-7.129,0.553
		c-0.096-0.433-0.144-0.912-0.144-1.417c2.256-0.287,4.681-0.456,7.225-0.456C17.41,16.171,17.434,16.387,17.434,16.603z
		 M20.65,22.651c-0.192,0.384-0.432,0.816-0.768,1.272c-1.104-0.433-2.136-1.057-3.096-1.824c0.288-0.48,0.552-0.889,0.84-1.272
		C18.562,21.308,19.57,21.907,20.65,22.651z M21.634,10.363c-0.288,0.144-0.792,0.216-1.464,0.216
		c-0.384-0.912-0.576-1.992-0.576-3.216c0.528-0.096,1.032-0.144,1.536-0.144C21.418,8.395,21.586,9.451,21.634,10.363z"/>
	<path d="M30.345,7.123c0,1.44-0.12,3.072-0.36,4.848c-0.192,0.072-0.456,0.096-0.816,0.096c-0.36,0-0.624-0.048-0.768-0.168
		c0-2.136,0.12-3.769,0.36-4.873c0.24-0.024,0.504-0.048,0.816-0.048C29.817,6.979,30.081,7.026,30.345,7.123z M43.498,10.411
		c0,0.816-0.048,1.608-0.144,2.4c0.528,0.048,1.056,0.072,1.561,0.096v0.552c0,0.288-0.024,0.48-0.049,0.624h-1.68
		c-0.096,0.648-0.216,1.296-0.36,1.92c-0.527,0.145-1.607,0.192-3.216,0.192c-3.912-0.12-6.577-0.384-7.969-0.816
		c0-0.576,0.024-1.152,0.072-1.705c-0.6-0.048-1.152-0.096-1.68-0.144c-0.048-0.072-0.072-0.264-0.072-0.6
		c0-0.192,0.024-0.408,0.12-0.624c0.6,0,1.2,0.024,1.776,0.024c0.072-0.552,0.168-1.08,0.312-1.608c0.456,0,0.912,0.048,1.392,0.12
		c-0.048,0.504-0.12,1.008-0.168,1.488c1.176,0.048,2.353,0.072,3.528,0.12c0.145-0.36,0.288-0.744,0.456-1.128
		c-0.768-0.072-1.536-0.168-2.328-0.264c0-0.48,0.048-0.912,0.168-1.296C37.929,9.907,40.69,10.123,43.498,10.411z M34.042,19.819
		c0.888,0.048,1.848,0.12,2.88,0.216c0,0.384-0.048,0.721-0.144,1.008c-1.104,0-2.017-0.023-2.736-0.119v0.504h6.696
		c0.024-1.009,0.048-2.137,0.096-3.337c-2.136-0.023-4.056-0.096-5.736-0.191c0-0.385,0.024-0.792,0.096-1.177
		c2.593,0.049,4.969,0.12,7.129,0.217c0.048,0.575,0.096,1.031,0.096,1.344c0,1.464-0.071,2.928-0.168,4.393
		c-1.151,0.144-3.384,0.24-6.672,0.24c-1.152,0-2.16-0.097-2.977-0.265c-0.144-0.288-0.216-0.84-0.24-1.656
		c0-1.271,0.048-2.568,0.192-3.912c0.192-0.048,0.456-0.096,0.744-0.096s0.552,0.048,0.744,0.096v0.937
		c1.104,0.096,2.16,0.239,3.168,0.407c-0.048,0.168-0.072,0.337-0.072,0.505c-0.048,0.239-0.071,0.432-0.12,0.527
		c-0.624,0-1.224-0.023-1.848-0.12c-0.384-0.048-0.769-0.096-1.128-0.168V19.819z M36.946,6.955c-0.097-0.6-0.145-1.2-0.145-1.776
		c0.145-0.096,0.408-0.168,0.769-0.216c0.359,0,0.624,0.048,0.768,0.096c0.12,0.648,0.192,1.296,0.216,1.944
		c2.4,0.048,4.776,0.144,7.105,0.24c0.144,1.536,0.216,3.024,0.216,4.44c-0.145,0.072-0.385,0.096-0.672,0.096
		c-0.217,0-0.48,0-0.793-0.048c-0.119-0.624-0.239-1.656-0.336-3.048c-3.744,0-7.536-0.096-11.353-0.312
		c-0.072-0.216-0.096-0.48-0.096-0.792c0-0.192,0-0.432,0.048-0.672C34.113,6.906,35.53,6.931,36.946,6.955z M36.393,13.939
		c-1.128-0.048-2.184-0.096-3.192-0.168c-0.024,0.192-0.048,0.36-0.072,0.504c0.552,0.192,1.56,0.336,3.048,0.432
		C36.25,14.443,36.322,14.179,36.393,13.939z M36.442,23.636c-0.288,0.624-0.648,1.248-1.129,1.872
		c-0.552-0.12-1.032-0.336-1.416-0.672c0.312-0.624,0.648-1.2,1.032-1.704C35.41,23.252,35.914,23.42,36.442,23.636z M38.074,13.987
		c-0.096,0.288-0.168,0.552-0.265,0.792c1.057,0.048,2.257,0.048,3.601,0.048c0.048-0.24,0.12-0.504,0.168-0.768
		C40.33,14.059,39.177,14.035,38.074,13.987z M38.53,12.523c1.104,0.048,2.184,0.12,3.264,0.168c0.049-0.312,0.072-0.624,0.072-0.96
		c-1.008-0.072-2.016-0.168-3.048-0.264C38.721,11.851,38.625,12.211,38.53,12.523z M42.298,24.26
		c-0.24,0.479-0.553,0.864-0.937,1.2c-0.816-0.36-1.536-0.721-2.112-1.104c0.288-0.624,0.576-1.08,0.84-1.392
		C40.881,23.372,41.625,23.804,42.298,24.26z"/>
	<path d="M62.721,8.179c2.257,0.096,4.513,0.168,6.769,0.264v0.672c0,0.336-0.048,0.624-0.096,0.84
		c-4.08-0.048-8.16-0.168-12.289-0.36c-0.432,1.488-0.912,2.952-1.392,4.392c-0.336,0.864-0.648,1.729-0.912,2.616
		c-0.265,0.889-0.624,1.729-1.057,2.545c-0.264,0-0.552-0.024-0.864-0.12c-0.264-0.096-0.504-0.216-0.695-0.36
		c0.888-2.928,1.943-6,3.192-9.168c-0.601-0.024-1.177-0.048-1.729-0.096c-0.072-0.192-0.096-0.456-0.096-0.816
		c0-0.24,0.048-0.48,0.191-0.744c2.425,0.096,4.873,0.168,7.321,0.264c-0.097-0.648-0.168-1.296-0.192-1.944
		c0.576-0.048,1.08-0.096,1.56-0.144C62.553,6.762,62.649,7.482,62.721,8.179z M57.681,17.852c0,1.296-0.12,2.712-0.36,4.296
		c-0.191,0.048-0.432,0.072-0.768,0.072s-0.576-0.048-0.696-0.168c0-1.872,0.096-3.312,0.336-4.297
		c0.24-0.023,0.48-0.048,0.769-0.048C57.2,17.707,57.44,17.755,57.681,17.852z M58.736,14.227v-2.304
		c0.097-0.048,0.36-0.096,0.793-0.144c0.336,0,0.575,0.048,0.743,0.096c0.049,0.792,0.072,1.584,0.12,2.4
		c0.769,0.048,1.536,0.072,2.28,0.096v0.672c0,0.264-0.048,0.528-0.144,0.792c-0.721,0-1.416,0-2.088-0.024
		c0.071,2.208,0.119,4.512,0.119,6.936c-0.191,0.049-0.456,0.097-0.792,0.097c-0.432,0-0.695-0.024-0.815-0.048
		c-0.097-2.448-0.168-4.776-0.192-7.033c-0.816,0-1.608-0.024-2.376-0.072c-0.072-0.288-0.097-0.552-0.097-0.792
		c0-0.24,0-0.456,0.049-0.696C57.152,14.203,57.944,14.227,58.736,14.227z M62.649,17.707c0.144,1.2,0.239,2.473,0.239,3.769
		c-0.144,0.144-0.384,0.191-0.672,0.191c-0.239,0-0.432-0.023-0.624-0.096c-0.191-1.248-0.288-2.521-0.312-3.769
		c0.144-0.096,0.384-0.144,0.672-0.191C62.289,17.611,62.505,17.659,62.649,17.707z M65.554,18.427
		c-0.336,1.681-0.624,2.833-0.841,3.48c-0.527,0-0.96-0.096-1.271-0.336c0.191-1.344,0.456-2.544,0.792-3.552
		C64.737,18.067,65.169,18.211,65.554,18.427z M69.897,15.163v0.696c-0.72,0.096-1.392,0.168-2.04,0.216
		c0.096,2.16,0.145,4.393,0.145,6.696c-0.192,0.048-0.456,0.096-0.792,0.096c-0.408,0-0.673-0.023-0.793-0.048
		c-0.144-2.328-0.264-4.536-0.312-6.624c-0.769,0.048-1.536,0.071-2.28,0.071c-0.096-0.479-0.144-0.959-0.144-1.463
		c0.768-0.072,1.56-0.144,2.376-0.192c-0.024-1.081-0.024-2.136-0.024-3.145c0.097-0.048,0.36-0.072,0.816-0.12
		c0.336,0,0.576,0.024,0.744,0.072c0.072,1.008,0.144,2.064,0.191,3.12c0.696-0.024,1.393-0.048,2.089-0.048
		C69.874,14.683,69.897,14.923,69.897,15.163z M70.282,17.971c0,0.673-0.049,1.417-0.097,2.209c0.24,0.048,0.528,0.071,0.816,0.12
		c0,0.384-0.048,0.743-0.096,1.128c-0.864,0-1.585-0.024-2.16-0.097c0-1.2,0.071-2.352,0.216-3.456
		C69.466,17.875,69.897,17.923,70.282,17.971z"/>
	<path d="M78.08,11.923c0-0.864,0.024-1.608,0.048-2.256c0.24-0.024,0.528-0.048,0.841-0.048c0.288,0,0.552,0.048,0.815,0.144
		c0,0.768,0,1.56,0,2.328c0.673,0.096,1.368,0.168,2.089,0.264c0,0.48-0.048,1.008-0.145,1.584c-0.672,0-1.344,0-1.968-0.048
		c-0.024,1.152-0.048,2.352-0.048,3.576c0.527,0,1.08-0.023,1.632-0.048c0.048,0.48,0.096,1.008,0.096,1.536
		c-1.968,0.192-3.84,0.265-5.616,0.265c-0.096-0.48-0.144-0.984-0.144-1.513c0.768-0.048,1.535-0.12,2.352-0.168
		c0-1.392,0-2.664,0.024-3.792c-0.864-0.072-1.681-0.192-2.448-0.336c0-0.576,0-1.104,0.048-1.632
		C76.448,11.827,77.265,11.875,78.08,11.923z M82.761,15.643v-0.744c0-0.192,0-0.408,0.048-0.624c3.36,0,7.297,0.144,11.81,0.384
		c0,0.48-0.049,0.96-0.145,1.439c-2.424,0-4.8-0.048-7.129-0.167c-0.647,0.816-1.296,1.583-1.968,2.352
		c-1.152,1.488-1.944,2.353-2.376,2.641c-0.504-0.192-0.912-0.528-1.2-1.032c0.768-0.96,1.536-1.872,2.328-2.761
		c0.432-0.479,0.84-0.936,1.2-1.32C84.465,15.763,83.601,15.715,82.761,15.643z M92.817,6.522c0.168,0.504,0.265,1.2,0.265,2.064
		c0,2.064-0.049,3.577-0.145,4.513c-0.815,0.216-2.4,0.312-4.729,0.312c-1.488,0-2.712-0.072-3.624-0.264
		c-0.144-1.08-0.24-2.424-0.288-4.056c0-0.696,0.072-1.464,0.24-2.329h1.44v2.041c0.911,0.048,1.896,0.12,2.928,0.24
		c0,0.48-0.072,0.936-0.216,1.32c-1.08,0-1.969-0.024-2.688-0.12c0,0.576,0,1.08,0.024,1.536c0.576,0.096,1.2,0.144,1.92,0.144
		c1.68,0,2.832-0.024,3.408-0.096c0-0.48-0.048-1.752-0.096-3.864c-1.225-0.096-2.4-0.216-3.505-0.384
		c0-0.456,0.024-0.912,0.12-1.344C89.577,6.282,91.233,6.378,92.817,6.522z M87.297,20.684c-0.359,0.912-0.792,1.896-1.296,3
		c-0.552-0.048-1.032-0.192-1.416-0.456c0.312-1.104,0.744-2.112,1.272-3.048C86.361,20.3,86.841,20.468,87.297,20.684z
		 M93.994,17.971c0.096,0.624,0.144,1.465,0.144,2.473c0,1.776-0.048,2.832-0.096,3.216c-0.433,0.145-0.889,0.217-1.416,0.217
		c-0.433,0-0.864-0.097-1.297-0.288c-0.048-0.145-0.048-0.288-0.048-0.48c0-0.144,0.024-0.288,0.097-0.384h1.031
		c-0.048-1.104-0.096-2.28-0.191-3.48c-1.152,0-3.049,0.048-5.665,0.145c-0.096-0.528-0.144-1.032-0.144-1.465
		c0.72-0.096,2.208-0.144,4.464-0.191C91.93,17.779,92.962,17.852,93.994,17.971z M90.321,21.163
		c-0.288,0.816-0.647,1.681-1.032,2.665c-0.552-0.049-1.032-0.192-1.416-0.456c0.24-0.984,0.576-1.873,1.008-2.736
		C89.386,20.756,89.865,20.924,90.321,21.163z"/>
</g>
<g>
</g>
<g>
</g>
<g>
</g>
<g>
</g>
<g>
</g>
<g>
</g>
</svg>
